STARTFONT 2.1
FONT -FontForge-FreeSans-Bold-R-Normal-Sans-20-140-100-100-P-110-ISO10646-1
SIZE 14 100 100
FONTBOUNDINGBOX 19 19 0 -4
COMMENT "Generated by fontforge, http://fontforge.sourceforge.net"
COMMENT "Copyleft 2002, 2003, 2005, 2008, 2009, 2010 Free Software Foundation."
STARTPROPERTIES 40
FOUNDRY "FontForge"
FAMILY_NAME "FreeSans"
WEIGHT_NAME "Bold"
SLANT "R"
SETWIDTH_NAME "Normal"
ADD_STYLE_NAME "Sans"
PIXEL_SIZE 20
POINT_SIZE 140
RESOLUTION_X 100
RESOLUTION_Y 100
SPACING "P"
AVERAGE_WIDTH 110
CHARSET_REGISTRY "ISO10646"
CHARSET_ENCODING "1"
FONTNAME_REGISTRY ""
CHARSET_COLLECTIONS "ISO8859-2 ISO8859-5 ISO8859-7 ISO8859-9 ISO8859-8 ISO8859-4 ISO10646-1"
FONT_NAME "FreeSansBold"
FACE_NAME "Free Sans Bold"
COPYRIGHT "Copyleft 2002, 2003, 2005, 2008, 2009, 2010 Free Software Foundation."
FONT_VERSION "$Revision: 1.199 $"
FONT_ASCENT 16
FONT_DESCENT 4
UNDERLINE_POSITION -4
UNDERLINE_THICKNESS 2
X_HEIGHT 10
CAP_HEIGHT 14
RAW_ASCENT 800
RAW_DESCENT 200
NORM_SPACE 6
RELATIVE_WEIGHT 70
RELATIVE_SETWIDTH 50
SUPERSCRIPT_X -3
SUPERSCRIPT_Y 9
SUPERSCRIPT_SIZE 13
SUBSCRIPT_X 0
SUBSCRIPT_Y 2
SUBSCRIPT_SIZE 13
FIGURE_WIDTH 11
AVG_LOWERCASE_WIDTH 107
AVG_UPPERCASE_WIDTH 135
ENDPROPERTIES
CHARS 96
STARTCHAR space
ENCODING 32
SWIDTH 278 0
DWIDTH 6 0
BBX 1 1 0 0
BITMAP
00
ENDCHAR
STARTCHAR exclam
ENCODING 33
SWIDTH 333 0
DWIDTH 7 0
BBX 3 15 2 0
BITMAP
E0
E0
E0
E0
E0
E0
E0
60
60
60
40
00
E0
E0
E0
ENDCHAR
STARTCHAR quotedbl
ENCODING 34
SWIDTH 474 0
DWIDTH 9 0
BBX 7 6 1 9
BITMAP
E6
E6
E6
E6
C6
46
ENDCHAR
STARTCHAR numbersign
ENCODING 35
SWIDTH 556 0
DWIDTH 11 0
BBX 11 15 0 -1
BITMAP
0CC0
18C0
1980
1980
7FE0
7FE0
3180
3300
3300
FFC0
FFC0
7300
6600
6600
6600
ENDCHAR
STARTCHAR dollar
ENCODING 36
SWIDTH 556 0
DWIDTH 11 0
BBX 11 18 0 -3
BITMAP
0400
1F80
7FC0
75C0
64C0
6400
7C00
3F00
1FC0
05C0
04C0
E4E0
74C0
7FC0
3F80
0400
0400
0400
ENDCHAR
STARTCHAR percent
ENCODING 37
SWIDTH 889 0
DWIDTH 18 0
BBX 17 14 0 0
BITMAP
3C0800
7E1800
671000
C33000
632000
7E6000
3CC000
008F00
019F80
013180
033180
023180
063F80
041F00
ENDCHAR
STARTCHAR ampersand
ENCODING 38
SWIDTH 722 0
DWIDTH 14 0
BBX 12 14 1 0
BITMAP
1F00
3F80
3380
3380
3B00
1E00
3E00
7F70
E770
E3E0
E1E0
E1E0
7FF0
3F70
ENDCHAR
STARTCHAR quotesingle
ENCODING 39
SWIDTH 238 0
DWIDTH 5 0
BBX 3 6 1 9
BITMAP
E0
E0
E0
E0
C0
40
ENDCHAR
STARTCHAR parenleft
ENCODING 40
SWIDTH 333 0
DWIDTH 7 0
BBX 5 19 1 -4
BITMAP
18
38
30
70
60
E0
E0
C0
C0
C0
C0
C0
E0
E0
60
60
30
30
18
ENDCHAR
STARTCHAR parenright
ENCODING 41
SWIDTH 333 0
DWIDTH 7 0
BBX 6 19 0 -4
BITMAP
C0
60
70
30
38
18
18
1C
1C
1C
1C
1C
18
18
38
30
30
60
60
ENDCHAR
STARTCHAR asterisk
ENCODING 42
SWIDTH 389 0
DWIDTH 8 0
BBX 6 7 1 8
BITMAP
30
30
BC
FC
70
58
48
ENDCHAR
STARTCHAR plus
ENCODING 43
SWIDTH 584 0
DWIDTH 12 0
BBX 10 9 1 0
BITMAP
0C00
0C00
0C00
FFC0
FFC0
FFC0
0C00
0C00
0C00
ENDCHAR
STARTCHAR comma
ENCODING 44
SWIDTH 278 0
DWIDTH 6 0
BBX 3 6 1 -3
BITMAP
E0
E0
E0
20
20
E0
ENDCHAR
STARTCHAR hyphen
ENCODING 45
SWIDTH 333 0
DWIDTH 7 0
BBX 5 3 1 4
BITMAP
F8
F8
F8
ENDCHAR
STARTCHAR period
ENCODING 46
SWIDTH 278 0
DWIDTH 6 0
BBX 3 3 1 0
BITMAP
E0
E0
E0
ENDCHAR
STARTCHAR slash
ENCODING 47
SWIDTH 278 0
DWIDTH 6 0
BBX 5 14 0 0
BITMAP
08
08
18
10
10
10
30
20
20
60
40
40
40
C0
ENDCHAR
STARTCHAR zero
ENCODING 48
SWIDTH 556 0
DWIDTH 11 0
BBX 9 14 1 0
BITMAP
3E00
7F00
E380
E380
C380
C380
C180
C180
C380
E380
E380
E380
7F00
3E00
ENDCHAR
STARTCHAR one
ENCODING 49
SWIDTH 556 0
DWIDTH 11 0
BBX 7 14 1 0
BITMAP
0E
0E
FE
FE
0E
0E
0E
0E
0E
0E
0E
0E
0E
0E
ENDCHAR
STARTCHAR two
ENCODING 50
SWIDTH 556 0
DWIDTH 11 0
BBX 9 14 1 0
BITMAP
7F00
FF80
E380
E380
C380
0380
0780
0F00
1E00
3800
7000
FF80
FF80
FF80
ENDCHAR
STARTCHAR three
ENCODING 51
SWIDTH 556 0
DWIDTH 11 0
BBX 9 14 1 0
BITMAP
7F00
FF00
E380
C380
0380
0700
1E00
1F00
0380
0380
C380
E380
FF80
7F00
ENDCHAR
STARTCHAR four
ENCODING 52
SWIDTH 556 0
DWIDTH 11 0
BBX 10 14 0 0
BITMAP
0780
0780
0F80
1F80
1B80
3380
3380
6380
C380
FFC0
FFC0
0380
0380
0380
ENDCHAR
STARTCHAR five
ENCODING 53
SWIDTH 556 0
DWIDTH 11 0
BBX 9 14 1 0
BITMAP
7F80
7F80
6000
6000
EC00
FF00
FF80
E380
0380
0180
C380
E380
FF00
7E00
ENDCHAR
STARTCHAR six
ENCODING 54
SWIDTH 556 0
DWIDTH 11 0
BBX 9 14 1 0
BITMAP
3F00
7F80
E380
E000
E000
DF00
FF80
E380
E180
C180
E180
E380
7F00
3F00
ENDCHAR
STARTCHAR seven
ENCODING 55
SWIDTH 556 0
DWIDTH 11 0
BBX 10 14 1 0
BITMAP
FFC0
FFC0
0380
0300
0700
0E00
0C00
1C00
1C00
1800
3800
3800
3800
3800
ENDCHAR
STARTCHAR eight
ENCODING 56
SWIDTH 556 0
DWIDTH 11 0
BBX 10 14 0 0
BITMAP
3F80
7F80
71C0
60C0
71C0
3F80
3F80
7BC0
71C0
E0C0
E0C0
71C0
7FC0
3F80
ENDCHAR
STARTCHAR nine
ENCODING 57
SWIDTH 556 0
DWIDTH 11 0
BBX 9 14 1 0
BITMAP
7E00
FF00
E380
C380
C380
C380
E380
FF80
7D80
0380
0380
E380
FF00
7E00
ENDCHAR
STARTCHAR colon
ENCODING 58
SWIDTH 333 0
DWIDTH 7 0
BBX 3 10 2 0
BITMAP
E0
E0
E0
00
00
00
00
E0
E0
E0
ENDCHAR
STARTCHAR semicolon
ENCODING 59
SWIDTH 333 0
DWIDTH 7 0
BBX 3 13 2 -3
BITMAP
E0
E0
E0
00
00
00
00
E0
E0
E0
20
20
C0
ENDCHAR
STARTCHAR less
ENCODING 60
SWIDTH 584 0
DWIDTH 12 0
BBX 10 9 1 0
BITMAP
01C0
0FC0
3E00
F000
C000
F800
3F00
07C0
00C0
ENDCHAR
STARTCHAR equal
ENCODING 61
SWIDTH 584 0
DWIDTH 12 0
BBX 10 7 1 1
BITMAP
FFC0
FFC0
0000
0000
0000
FFC0
FFC0
ENDCHAR
STARTCHAR greater
ENCODING 62
SWIDTH 584 0
DWIDTH 12 0
BBX 10 9 1 0
BITMAP
C000
F800
3F00
07C0
01C0
0FC0
7E00
F000
C000
ENDCHAR
STARTCHAR question
ENCODING 63
SWIDTH 611 0
DWIDTH 12 0
BBX 10 15 1 0
BITMAP
1E00
3F80
7FC0
E1C0
E1C0
01C0
01C0
0780
0F00
0E00
0C00
0000
0E00
0E00
0E00
ENDCHAR
STARTCHAR at
ENCODING 64
SWIDTH 975 0
DWIDTH 20 0
BBX 18 18 1 -3
BITMAP
03F000
0FFC00
1C0700
300380
600180
61E8C0
C338C0
C618C0
C418C0
8C10C0
CC3180
CC7180
C7FF00
E39E00
700000
380000
1FF800
03E000
ENDCHAR
STARTCHAR A
ENCODING 65
SWIDTH 722 0
DWIDTH 14 0
BBX 13 15 1 0
BITMAP
0700
0F00
0F80
0F80
1D80
1DC0
19C0
38C0
38E0
70E0
7FF0
7FF0
E070
E078
E038
ENDCHAR
STARTCHAR B
ENCODING 66
SWIDTH 722 0
DWIDTH 14 0
BBX 11 15 2 0
BITMAP
FE00
FFC0
FFC0
E0E0
E0E0
E0E0
FFC0
FF80
FFC0
E0E0
E0E0
E0E0
FFE0
FFC0
FF80
ENDCHAR
STARTCHAR C
ENCODING 67
SWIDTH 722 0
DWIDTH 14 0
BBX 13 15 1 0
BITMAP
0F80
3FE0
7FF0
7070
F038
E000
E000
E000
E000
E000
E038
7070
78F0
3FE0
1FC0
ENDCHAR
STARTCHAR D
ENCODING 68
SWIDTH 722 0
DWIDTH 14 0
BBX 12 15 2 0
BITMAP
FE00
FF80
FFC0
E1E0
E0E0
E0E0
E070
E070
E070
E0E0
E0E0
E0E0
FFC0
FFC0
FF00
ENDCHAR
STARTCHAR E
ENCODING 69
SWIDTH 667 0
DWIDTH 13 0
BBX 10 15 2 0
BITMAP
FFC0
FFC0
FFC0
E000
E000
E000
FFC0
FFC0
FFC0
E000
E000
E000
FFC0
FFC0
FFC0
ENDCHAR
STARTCHAR F
ENCODING 70
SWIDTH 611 0
DWIDTH 12 0
BBX 11 15 1 0
BITMAP
FFE0
FFE0
FFE0
E000
E000
E000
FFC0
FFC0
FFC0
E000
E000
E000
E000
E000
E000
ENDCHAR
STARTCHAR G
ENCODING 71
SWIDTH 778 0
DWIDTH 16 0
BBX 13 15 1 0
BITMAP
0780
1FE0
3FF0
7078
F038
E000
E000
E1F8
E1F8
E1F8
E018
7038
7878
3FF8
1FD8
ENDCHAR
STARTCHAR H
ENCODING 72
SWIDTH 722 0
DWIDTH 14 0
BBX 12 15 1 0
BITMAP
E070
E070
E070
E070
E070
E070
FFF0
FFF0
E070
E070
E070
E070
E070
E070
E070
ENDCHAR
STARTCHAR I
ENCODING 73
SWIDTH 278 0
DWIDTH 6 0
BBX 3 15 1 0
BITMAP
E0
E0
E0
E0
E0
E0
E0
E0
E0
E0
E0
E0
E0
E0
E0
ENDCHAR
STARTCHAR J
ENCODING 74
SWIDTH 556 0
DWIDTH 11 0
BBX 10 15 0 0
BITMAP
01C0
01C0
01C0
01C0
01C0
01C0
01C0
01C0
01C0
01C0
E1C0
E1C0
73C0
7F80
3F00
ENDCHAR
STARTCHAR K
ENCODING 75
SWIDTH 722 0
DWIDTH 14 0
BBX 13 15 1 0
BITMAP
E078
E0F0
E1E0
E3C0
E380
E700
EE00
FF00
FF00
F380
E3C0
E1E0
E0E0
E070
E078
ENDCHAR
STARTCHAR L
ENCODING 76
SWIDTH 611 0
DWIDTH 12 0
BBX 10 15 2 0
BITMAP
E000
E000
E000
E000
E000
E000
E000
E000
E000
E000
E000
E000
FFC0
FFC0
FFC0
ENDCHAR
STARTCHAR M
ENCODING 77
SWIDTH 833 0
DWIDTH 17 0
BBX 15 15 1 0
BITMAP
F83E
F83E
F83E
F87E
EC6E
EC6E
EC6E
ECEE
EECE
E6CE
E6CE
E6CE
E7CE
E38E
E38E
ENDCHAR
STARTCHAR N
ENCODING 78
SWIDTH 722 0
DWIDTH 14 0
BBX 12 15 1 0
BITMAP
E070
F070
F870
F870
FC70
EC70
EE70
E770
E770
E3F0
E1F0
E1F0
E0F0
E0F0
E070
ENDCHAR
STARTCHAR O
ENCODING 79
SWIDTH 778 0
DWIDTH 16 0
BBX 14 15 1 0
BITMAP
0780
1FE0
3FF0
7878
F038
E03C
E01C
E01C
E01C
E01C
E038
7038
7878
3FF0
1FC0
ENDCHAR
STARTCHAR P
ENCODING 80
SWIDTH 667 0
DWIDTH 13 0
BBX 11 15 2 0
BITMAP
FE00
FF80
FFC0
E1C0
E0E0
E0E0
E1C0
FFC0
FF80
FF00
E000
E000
E000
E000
E000
ENDCHAR
STARTCHAR Q
ENCODING 81
SWIDTH 778 0
DWIDTH 16 0
BBX 14 16 1 -1
BITMAP
0780
1FE0
3FF0
7878
F038
E01C
E01C
E01C
E01C
E01C
E0FC
70F8
7878
3FF8
1FFC
0008
ENDCHAR
STARTCHAR R
ENCODING 82
SWIDTH 722 0
DWIDTH 14 0
BBX 12 15 2 0
BITMAP
FF00
FFC0
FFE0
E0E0
E0E0
E0E0
E0E0
FFC0
FFC0
E1E0
E0E0
E0E0
E0E0
E0E0
E0F0
ENDCHAR
STARTCHAR S
ENCODING 83
SWIDTH 667 0
DWIDTH 13 0
BBX 12 15 1 0
BITMAP
1F00
7FC0
FFE0
E0E0
E0E0
E000
FE00
7FC0
0FE0
00F0
0070
E070
F0E0
7FE0
3FC0
ENDCHAR
STARTCHAR T
ENCODING 84
SWIDTH 611 0
DWIDTH 12 0
BBX 12 15 0 0
BITMAP
FFF0
FFF0
FFF0
0700
0700
0700
0700
0700
0700
0700
0700
0700
0700
0700
0700
ENDCHAR
STARTCHAR U
ENCODING 85
SWIDTH 722 0
DWIDTH 14 0
BBX 11 15 2 0
BITMAP
E0E0
E0E0
E0E0
E0E0
E0E0
E0E0
E0E0
E0E0
E0E0
E0E0
E0E0
E0E0
F1E0
FFC0
3F80
ENDCHAR
STARTCHAR V
ENCODING 86
SWIDTH 667 0
DWIDTH 13 0
BBX 13 15 0 0
BITMAP
F038
7038
7070
3070
3870
38E0
18E0
1CE0
1CC0
0DC0
0D80
0F80
0780
0700
0700
ENDCHAR
STARTCHAR W
ENCODING 87
SWIDTH 944 0
DWIDTH 19 0
BBX 19 15 0 0
BITMAP
E0E1E0
70E1C0
70E1C0
71F1C0
71B1C0
31B380
39B380
3BB380
1B3B00
1B1B00
1F1F00
1F1F00
0F1E00
0E0E00
0E0E00
ENDCHAR
STARTCHAR X
ENCODING 88
SWIDTH 667 0
DWIDTH 13 0
BBX 12 15 1 0
BITMAP
E0F0
F0E0
71E0
79C0
3B80
1F80
1F00
0E00
0F00
1F80
3B80
39C0
71C0
F0E0
E0F0
ENDCHAR
STARTCHAR Y
ENCODING 89
SWIDTH 667 0
DWIDTH 13 0
BBX 12 15 1 0
BITMAP
E070
E0E0
70E0
71C0
39C0
3B80
1F80
1F00
0F00
0E00
0E00
0E00
0E00
0E00
0E00
ENDCHAR
STARTCHAR Z
ENCODING 90
SWIDTH 611 0
DWIDTH 12 0
BBX 11 15 1 0
BITMAP
FFE0
FFE0
FFE0
01C0
0380
0780
0F00
1E00
1C00
3800
7800
F000
FFE0
FFE0
FFE0
ENDCHAR
STARTCHAR bracketleft
ENCODING 91
SWIDTH 333 0
DWIDTH 7 0
BBX 5 19 1 -4
BITMAP
F8
F8
E0
E0
E0
E0
E0
E0
E0
E0
E0
E0
E0
E0
E0
E0
E0
F8
F8
ENDCHAR
STARTCHAR backslash
ENCODING 92
SWIDTH 278 0
DWIDTH 6 0
BBX 6 14 0 0
BITMAP
80
C0
40
40
60
20
20
30
10
10
18
08
08
0C
ENDCHAR
STARTCHAR bracketright
ENCODING 93
SWIDTH 333 0
DWIDTH 7 0
BBX 5 19 0 -4
BITMAP
F8
F8
18
18
18
18
18
18
18
18
18
18
18
18
18
18
18
F8
F8
ENDCHAR
STARTCHAR asciicircum
ENCODING 94
SWIDTH 584 0
DWIDTH 12 0
BBX 9 9 1 5
BITMAP
1C00
1E00
1E00
3600
3300
7300
6380
6180
C180
ENDCHAR
STARTCHAR underscore
ENCODING 95
SWIDTH 556 0
DWIDTH 11 0
BBX 12 2 0 -4
BITMAP
FFF0
FFF0
ENDCHAR
STARTCHAR grave
ENCODING 96
SWIDTH 333 0
DWIDTH 7 0
BBX 3 3 1 12
BITMAP
C0
60
20
ENDCHAR
STARTCHAR a
ENCODING 97
SWIDTH 556 0
DWIDTH 11 0
BBX 9 11 1 0
BITMAP
3E00
7F00
E380
E380
0780
7F80
F380
C380
C380
FF80
FB80
ENDCHAR
STARTCHAR b
ENCODING 98
SWIDTH 611 0
DWIDTH 12 0
BBX 10 15 1 0
BITMAP
E000
E000
E000
E000
EF00
FF80
FBC0
E1C0
E0C0
E0C0
E0C0
E1C0
F1C0
FF80
FF80
ENDCHAR
STARTCHAR c
ENCODING 99
SWIDTH 556 0
DWIDTH 11 0
BBX 9 11 1 0
BITMAP
3E00
7F00
F380
E180
E000
C000
E000
E180
E380
7F80
3F00
ENDCHAR
STARTCHAR d
ENCODING 100
SWIDTH 611 0
DWIDTH 12 0
BBX 10 15 1 0
BITMAP
01C0
01C0
01C0
01C0
3DC0
7FC0
F7C0
E1C0
E1C0
C1C0
C1C0
E1C0
E3C0
7FC0
7FC0
ENDCHAR
STARTCHAR e
ENCODING 101
SWIDTH 556 0
DWIDTH 11 0
BBX 10 11 0 0
BITMAP
1F00
3F80
71C0
71C0
60C0
FFC0
E000
6000
71C0
7FC0
3F80
ENDCHAR
STARTCHAR f
ENCODING 102
SWIDTH 333 0
DWIDTH 7 0
BBX 6 15 0 0
BITMAP
0C
3C
3C
38
FC
FC
38
38
38
38
38
38
38
38
38
ENDCHAR
STARTCHAR g
ENCODING 103
SWIDTH 611 0
DWIDTH 12 0
BBX 10 15 1 -4
BITMAP
3DC0
7FC0
F7C0
E1C0
E1C0
C1C0
E1C0
E1C0
E3C0
7FC0
7FC0
01C0
E1C0
F780
7F00
ENDCHAR
STARTCHAR h
ENCODING 104
SWIDTH 611 0
DWIDTH 12 0
BBX 10 15 1 0
BITMAP
E000
E000
E000
E000
EF00
FF80
FBC0
E1C0
E1C0
E1C0
E1C0
E1C0
E1C0
E1C0
E1C0
ENDCHAR
STARTCHAR i
ENCODING 105
SWIDTH 278 0
DWIDTH 6 0
BBX 3 15 1 0
BITMAP
E0
E0
E0
00
E0
E0
E0
E0
E0
E0
E0
E0
E0
E0
E0
ENDCHAR
STARTCHAR j
ENCODING 106
SWIDTH 278 0
DWIDTH 6 0
BBX 4 19 0 -4
BITMAP
70
70
70
00
70
70
70
70
70
70
70
70
70
70
70
70
70
F0
F0
ENDCHAR
STARTCHAR k
ENCODING 107
SWIDTH 556 0
DWIDTH 11 0
BBX 10 15 1 0
BITMAP
E000
E000
E000
E000
E380
E780
E700
EE00
FC00
FE00
FE00
E700
E700
E380
E3C0
ENDCHAR
STARTCHAR l
ENCODING 108
SWIDTH 278 0
DWIDTH 6 0
BBX 3 15 1 0
BITMAP
E0
E0
E0
E0
E0
E0
E0
E0
E0
E0
E0
E0
E0
E0
E0
ENDCHAR
STARTCHAR m
ENCODING 109
SWIDTH 889 0
DWIDTH 18 0
BBX 15 11 1 0
BITMAP
EF3C
FFFE
F3CE
E386
E386
E386
E386
E386
E386
E386
E386
ENDCHAR
STARTCHAR n
ENCODING 110
SWIDTH 611 0
DWIDTH 12 0
BBX 10 11 1 0
BITMAP
EF00
FF80
FBC0
E1C0
E1C0
E1C0
E1C0
E1C0
E1C0
E1C0
E1C0
ENDCHAR
STARTCHAR o
ENCODING 111
SWIDTH 611 0
DWIDTH 12 0
BBX 10 11 1 0
BITMAP
1E00
7F80
F3C0
E1C0
E1C0
E0C0
E0C0
E1C0
E1C0
7F80
3F00
ENDCHAR
STARTCHAR p
ENCODING 112
SWIDTH 611 0
DWIDTH 12 0
BBX 10 15 1 -4
BITMAP
EF00
FF80
FBC0
E1C0
E0C0
E0C0
E0C0
E1C0
F1C0
FF80
EF80
E000
E000
E000
E000
ENDCHAR
STARTCHAR q
ENCODING 113
SWIDTH 611 0
DWIDTH 12 0
BBX 10 15 1 -4
BITMAP
3DC0
7FC0
F7C0
E1C0
E1C0
C1C0
C1C0
E1C0
E3C0
7FC0
7FC0
01C0
01C0
01C0
01C0
ENDCHAR
STARTCHAR r
ENCODING 114
SWIDTH 389 0
DWIDTH 8 0
BBX 6 11 1 0
BITMAP
EC
FC
FC
F0
E0
E0
E0
E0
E0
E0
E0
ENDCHAR
STARTCHAR s
ENCODING 115
SWIDTH 556 0
DWIDTH 11 0
BBX 9 11 1 0
BITMAP
3E00
7F00
E380
E380
F800
7F00
1F80
0380
E180
FF80
7F00
ENDCHAR
STARTCHAR t
ENCODING 116
SWIDTH 333 0
DWIDTH 7 0
BBX 6 13 0 0
BITMAP
30
30
FC
FC
30
30
30
30
30
30
30
3C
3C
ENDCHAR
STARTCHAR u
ENCODING 117
SWIDTH 611 0
DWIDTH 12 0
BBX 10 11 1 0
BITMAP
E1C0
E1C0
E1C0
E1C0
E1C0
E1C0
E1C0
E1C0
E3C0
FFC0
7DC0
ENDCHAR
STARTCHAR v
ENCODING 118
SWIDTH 556 0
DWIDTH 11 0
BBX 11 11 0 0
BITMAP
E0E0
71C0
71C0
71C0
3980
3B80
3B80
1B00
1F00
0F00
0E00
ENDCHAR
STARTCHAR w
ENCODING 119
SWIDTH 778 0
DWIDTH 16 0
BBX 15 11 0 0
BITMAP
E38E
E38E
73CE
73CC
76DC
36DC
36FC
3E78
3E78
1C78
1C70
ENDCHAR
STARTCHAR x
ENCODING 120
SWIDTH 556 0
DWIDTH 11 0
BBX 9 11 1 0
BITMAP
E380
E380
7700
3E00
3E00
1C00
3E00
3E00
7700
E380
E380
ENDCHAR
STARTCHAR y
ENCODING 121
SWIDTH 556 0
DWIDTH 11 0
BBX 11 15 0 -4
BITMAP
E0E0
70C0
71C0
71C0
3980
3B80
3B80
1B00
1F00
1F00
0E00
0E00
0C00
3C00
3C00
ENDCHAR
STARTCHAR z
ENCODING 122
SWIDTH 500 0
DWIDTH 10 0
BBX 9 11 0 0
BITMAP
7F80
7F80
0380
0700
0E00
1E00
3C00
7800
7000
FF80
FF80
ENDCHAR
STARTCHAR braceleft
ENCODING 123
SWIDTH 389 0
DWIDTH 8 0
BBX 5 19 1 -4
BITMAP
18
38
70
70
70
70
70
70
70
C0
E0
70
70
70
70
70
70
38
38
ENDCHAR
STARTCHAR bar
ENCODING 124
SWIDTH 280 0
DWIDTH 6 0
BBX 2 19 2 -4
BITMAP
C0
C0
C0
C0
C0
C0
C0
C0
C0
C0
C0
C0
C0
C0
C0
C0
C0
C0
C0
ENDCHAR
STARTCHAR braceright
ENCODING 125
SWIDTH 389 0
DWIDTH 8 0
BBX 6 19 1 -4
BITMAP
E0
F0
30
30
30
30
30
30
38
1C
3C
30
30
30
30
30
30
F0
E0
ENDCHAR
STARTCHAR asciitilde
ENCODING 126
SWIDTH 584 0
DWIDTH 12 0
BBX 9 3 1 3
BITMAP
7880
CD80
C780
ENDCHAR
STARTCHAR degree
ENCODING 176
SWIDTH 606 0
DWIDTH 12 0
BBX 6 6 3 8
BITMAP
30
78
84
84
CC
78
ENDCHAR
ENDFONT
